<?xml version="1.0" encoding="UTF-8" standalone="no"?>
<svg width="9px" height="12px" viewBox="0 0 9 12" version="1.1" xmlns="http://www.w3.org/2000/svg" xmlns:xlink="http://www.w3.org/1999/xlink">
    <!-- Generator: Sketch 49 (51002) - http://www.bohemiancoding.com/sketch -->
    <title>₽</title>
    <desc>Created with Sketch.</desc>
    <defs></defs>
    <g id="Page-1" stroke="none" stroke-width="1" fill="none" fill-rule="evenodd">
        <path d="M0.581300813,5.85365854 L1.73577236,5.85365854 L1.73577236,0.666666667 L4.71138211,0.666666667 C5.26423041,0.666666667 5.76829041,0.728996667 6.22357724,0.853658537 C6.67886407,0.978320407 7.06910407,1.16802041 7.39430894,1.42276423 C7.71951382,1.67750805 7.97425382,1.99999805 8.15853659,2.3902439 C8.34281935,2.78048976 8.43495935,3.24660976 8.43495935,3.78861789 C8.43495935,4.33062602 8.33739935,4.80216602 8.14227642,5.20325203 C7.9471535,5.60433805 7.6815735,5.93766805 7.34552846,6.20325203 C7.00948341,6.46883602 6.61382341,6.66666602 6.15853659,6.79674797 C5.70324976,6.92682992 5.21002976,6.99186992 4.67886179,6.99186992 L3.03658537,6.99186992 L3.03658537,8.63414634 L5.65447154,8.63414634 L5.65447154,9.70731707 L3.03658537,9.70731707 L3.03658537,12 L1.73577236,12 L1.73577236,9.70731707 L0.581300813,9.70731707 L0.581300813,8.63414634 L1.73577236,8.63414634 L1.73577236,6.99186992 L0.581300813,6.99186992 L0.581300813,5.85365854 Z M4.71138211,5.85365854 C5.45935333,5.85365854 6.04742333,5.68292854 6.47560976,5.34146341 C6.90379618,4.99999829 7.11788618,4.48238829 7.11788618,3.78861789 C7.11788618,3.09484748 6.90379618,2.59078748 6.47560976,2.27642276 C6.04742333,1.96205805 5.45935333,1.80487805 4.71138211,1.80487805 L3.03658537,1.80487805 L3.03658537,5.85365854 L4.71138211,5.85365854 Z" id="₽" fill="#000000"></path>
    </g>
</svg>