<?xml version="1.0" encoding="UTF-8"?>
<svg width="38px" height="12px" viewBox="0 0 38 12" version="1.1" xmlns="http://www.w3.org/2000/svg" xmlns:xlink="http://www.w3.org/1999/xlink">
    <!-- Generator: Sketch 52.4 (67378) - http://www.bohemiancoding.com/sketch -->
    <title>Group 3</title>
    <desc>Created with Sketch.</desc>
    <defs>
        <polygon id="path-1" points="1.15583075e-05 5.77996716e-06 37.327612 5.77996716e-06 37.327612 11.6990003 1.15583075e-05 11.6990003"></polygon>
    </defs>
    <g id="Demo-Pages-28.09.2017" stroke="none" stroke-width="1" fill="none" fill-rule="evenodd">
        <g id="3.1.-Pay_CheckOut_Modal" transform="translate(-459.000000, -566.000000)">
            <g id="btn" transform="translate(317.000000, 504.000000)">
                <g id="Group-3" transform="translate(20.000000, 60.000000)">
                    <g transform="translate(122.666667, 2.133333)">
                        <mask id="mask-2" fill="white">
                            <use xlink:href="#path-1"></use>
                        </mask>
                        <g id="Clip-2"></g>
                        <path d="M7.31485986,8.70729511 L6.15452136,7.31166424 C6.03275459,7.16514207 6.13712611,6.94336473 6.32731806,6.94336473 L8.75519835,6.94336473 C8.87083922,6.59905209 8.93591249,6.23138837 8.93591249,5.84933255 C8.93591249,4.10083468 7.63508277,2.59307245 5.84868854,2.59307245 C4.0624677,2.59307245 2.7608289,4.10083468 2.7608289,5.84933255 C2.7608289,7.59823501 4.0624677,9.08443796 5.84868854,9.08443796 C6.38973292,9.08443796 6.88541094,8.94647015 7.31485986,8.70729511 Z M12.5656834,11.0663887 C12.6920157,11.2059171 12.5883377,11.4307 12.3985503,11.4307 L9.7492128,11.4307 C9.64085366,11.4307 9.53902497,11.3830153 9.47002188,11.2997838 L9.02063488,10.7597036 C8.10625717,11.3531329 7.01758019,11.6990061 5.84868854,11.6990061 C2.6235162,11.6990061 1.15583075e-05,9.07495882 1.15583075e-05,5.84933255 C1.15583075e-05,2.62405307 2.6235162,5.77996716e-06 5.84868854,5.77996716e-06 C9.07362972,5.77996716e-06 11.696961,2.62405307 11.696961,5.84933255 C11.696961,7.01226194 11.3546617,8.09594798 10.7675575,9.007391 L12.5656834,11.0663887 Z M37.0398217,0.26929445 L34.8777825,0.26929445 C34.7186246,0.26929445 34.5902118,0.397667521 34.5902118,0.556732217 L34.5902118,11.1423375 C34.5902118,11.3010554 34.7186246,11.429833 34.8777825,11.429833 L37.0398217,11.429833 C37.198864,11.429833 37.3276235,11.3010554 37.3276235,11.1423375 L37.3276235,0.556732217 C37.3276235,0.397667521 37.198864,0.26929445 37.0398217,0.26929445 Z M33.4015554,0.26929445 L30.9828062,0.26929445 C30.8558382,0.26929445 30.7442427,0.351254384 30.7071983,0.471073103 L28.7930848,6.72655816 L26.6891261,0.464252742 C26.6498279,0.347844204 26.5401395,0.26929445 26.4162345,0.26929445 L24.7281437,0.26929445 C24.6043542,0.26929445 24.4944925,0.347844204 24.4550208,0.464252742 L22.3514089,6.72655816 L20.4371798,0.471073103 C20.4001354,0.351254384 20.2885977,0.26929445 20.1620921,0.26929445 L17.7428227,0.26929445 C17.6502985,0.26929445 17.5637845,0.31328 17.5095183,0.387610378 C17.4554832,0.462229754 17.4408619,0.557599212 17.4698733,0.644761117 L21.023186,11.2358573 C21.0626576,11.3524971 21.1723459,11.4307 21.2963666,11.4307 L23.2162014,11.4307 C23.339702,11.4307 23.4495059,11.3524971 23.4886885,11.2358573 L25.5725358,5.0482869 L27.6554584,11.2358573 C27.6945833,11.3524971 27.804445,11.4307 27.9282923,11.4307 L29.8485895,11.4307 C29.9720322,11.4307 30.0821251,11.3524971 30.1213655,11.2358573 L33.6746782,0.644761117 C33.7036896,0.557599212 33.6890105,0.462229754 33.6349176,0.387610378 C33.5807092,0.31328 33.4938485,0.26929445 33.4015554,0.26929445 Z M16.5545709,0.556732217 L16.5545709,11.1423375 C16.5545709,11.3010554 16.4254646,11.429833 16.2663645,11.429833 L14.1044987,11.429833 C13.9456297,11.429833 13.816928,11.3010554 13.816928,11.1423375 L13.816928,0.556732217 C13.816928,0.397667521 13.9456297,0.26929445 14.1044987,0.26929445 L16.2663645,0.26929445 C16.4254646,0.26929445 16.5545709,0.397667521 16.5545709,0.556732217 Z" id="Fill-1" fill="#FF8C00" mask="url(#mask-2)"></path>
                    </g>
                </g>
            </g>
        </g>
    </g>
</svg>