<svg xmlns="http://www.w3.org/2000/svg" xmlns:xlink="http://www.w3.org/1999/xlink" width="100" height="100" viewBox="0 0 100 100">
    <defs>
        <path id="b" d="M431 209.995a3.005 3.005 0 0 1 3.007-2.995h411.986a3.006 3.006 0 0 1 3.007 3.006v643.988a3.01 3.01 0 0 1-3.007 3.006H434.007a3.005 3.005 0 0 1-3.007-2.997V399.867v-69.099-120.773z"/>
        <filter id="a" width="120.3%" height="113.1%" x="-10.2%" y="-5%" filterUnits="objectBoundingBox">
            <feOffset dy="10" in="SourceAlpha" result="shadowOffsetOuter1"/>
            <feGaussianBlur in="shadowOffsetOuter1" result="shadowBlurOuter1" stdDeviation="12.5"/>
            <feColorMatrix in="shadowBlurOuter1" values="0 0 0 0 0 0 0 0 0 0 0 0 0 0 0 0 0 0 0.15 0"/>
        </filter>
        <path id="c" d="M421 212.005c0-5.526 4.478-10.005 9.997-10.005h418.006c5.521 0 9.997 4.478 9.997 10.005v639.99c0 5.526-4.478 10.005-9.997 10.005H430.997c-5.521 0-9.997-4.478-9.997-10.005v-639.99z"/>
    </defs>
    <g fill="none" fill-rule="evenodd">
        <path fill="#FBFBFB" d="M-590-559H690V545H-590z"/>
        <use fill="#000" filter="url(#a)" transform="translate(-590 -559)" xlink:href="#b"/>
        <g transform="translate(-590 -559)">
            <use fill="#FFF" xlink:href="#c"/>
            <path stroke="#E7E7E7" d="M421.5 212.005c0-5.25 4.253-9.505 9.497-9.505h418.006c5.245 0 9.497 4.254 9.497 9.505v639.99c0 5.25-4.253 9.505-9.497 9.505H430.997c-5.245 0-9.497-4.254-9.497-9.505v-639.99z"/>
        </g>
        <path fill="#FF8C00" fill-rule="nonzero" d="M98.341 62.816c.029-.106.056-.213.084-.32A50.084 50.084 0 0 0 100 50c0-27.614-22.386-50-50-50S0 22.386 0 50s22.386 50 50 50a50.094 50.094 0 0 0 12.882-1.676 3.234 3.234 0 0 0-1.662-6.25A43.627 43.627 0 0 1 50 93.533C25.958 93.532 6.468 74.042 6.468 50 6.468 25.958 25.958 6.468 50 6.468c24.042 0 43.532 19.49 43.532 43.532 0 3.712-.463 7.36-1.37 10.884-.53 2.005.5 3.775 2.226 4.232a3.234 3.234 0 0 0 3.953-2.3z"/>
    </g>
</svg>
