<svg xmlns="http://www.w3.org/2000/svg" width="49" height="18" viewBox="0 0 49 18">
    <g fill="#BFBFBF" fill-rule="evenodd">
        <path d="M4.512 11.119a2.068 2.068 0 0 0-1.194-.352c-.579 0-1.044.12-1.044.736 0 1.089 2.108.682 2.108 3.013 0 2.123-1.391 2.673-2.65 2.673-.56 0-1.204-.186-1.679-.397l.342-1.56c.286.261.864.44 1.337.44.45 0 1.156-.124 1.156-.912 0-1.233-2.107-.774-2.107-2.939 0-1.98 1.231-2.573 2.419-2.573.668 0 1.296.099 1.665.344l-.353 1.527M8.746 16.927c-.487.168-.96.25-1.465.25-1.598 0-2.431-.944-2.431-2.744 0-2.103 1.06-3.653 2.5-3.653 1.178 0 1.93.866 1.93 2.228 0 .45-.051.89-.173 1.511h-2.85a1.89 1.89 0 0 0-.012.19c0 .715.427 1.076 1.256 1.076.511 0 .973-.12 1.485-.389l-.24 1.53zm-.8-3.645c.006-.13.01-.233.01-.312 0-.499-.25-.791-.675-.791-.457 0-.782.393-.913 1.097l1.578.006zM12.933 16.924c-.295.142-.689.236-1.27.236-1.25 0-2.025-1.251-2.025-2.775 0-1.995 1.121-3.586 2.771-3.586.36 0 .91.156 1.343.408l-.316 1.463c-.307-.202-.626-.33-.955-.33-.765 0-1.31.702-1.31 1.96 0 .724.395 1.318 1.021 1.318.373 0 .635-.079.955-.267l-.214 1.573M18.283 15.39a24.027 24.027 0 0 0-.182 1.59h-1.377l.116-.99h-.014c-.431.672-.877 1.13-1.657 1.13-.864 0-1.333-.91-1.333-2.1 0-.411.026-.643.117-1.284l.39-2.835h1.532l-.41 2.844c-.042.306-.1.609-.1.924 0 .359.162.722.575.7.628 0 .999-.77 1.104-1.668l.423-2.8h1.483l-.667 4.49M22.156 10.841a.55.55 0 0 0-.147-.017c-.464 0-.737.27-1.172.997l.127-.93h-1.295l-.874 6.127h1.43c.514-3.748.65-4.393 1.336-4.393.04 0 .045 0 .104.007.129-.741.302-1.284.543-1.78l-.052-.01M25.757 16.927c-.487.168-.962.25-1.465.25-1.6 0-2.433-.944-2.433-2.744 0-2.103 1.062-3.653 2.5-3.653 1.18 0 1.933.866 1.933 2.228 0 .45-.053.89-.18 1.511h-2.844c-.009.092-.014.138-.014.19 0 .715.426 1.076 1.256 1.076.51 0 .974-.12 1.486-.389l-.239 1.53zm-.804-3.645c.01-.13.015-.233.015-.312 0-.499-.253-.791-.676-.791-.457 0-.782.393-.914 1.097l1.575.006zM31.626 9.72l-.234 1.632c-.509-.288-.88-.407-1.28-.407-1.07 0-1.817 1.166-1.817 2.823 0 1.145.5 1.837 1.334 1.837.355 0 .744-.121 1.217-.388l-.248 1.718c-.53.164-.876.22-1.268.22-1.542 0-2.502-1.249-2.502-3.252 0-2.696 1.325-4.578 3.224-4.578.245 0 .463.032.642.081l.586.167c.181.071.218.084.346.147M34.534 13.523c0 1.389-.43 2.207-1.105 2.207-.494.015-.793-.536-.793-1.361 0-.975.437-2.08 1.139-2.08.564 0 .76.598.76 1.234zm1.507.026c0-1.544-.762-2.746-2.193-2.746-1.647 0-2.714 1.461-2.714 3.613 0 1.54.63 2.799 2.19 2.799 1.574 0 2.717-1.117 2.717-3.666zM40.836 16.952h-1.35l.068-.598c-.393.472-.801.68-1.324.68-1.043 0-1.73-1.012-1.73-2.544 0-2.034 1.068-3.759 2.33-3.759.557 0 .98.264 1.37.844l.316-2.154h1.407l-1.087 7.531zm-2.114-1.44c.673 0 1.138-.851 1.138-2.065 0-.78-.265-1.2-.757-1.2-.65 0-1.113.851-1.113 2.061 0 .798.248 1.203.732 1.203zM45.716 16.927c-.494.168-.963.25-1.47.25-1.596 0-2.432-.944-2.432-2.744 0-2.103 1.063-3.653 2.502-3.653 1.179 0 1.929.866 1.929 2.228 0 .45-.049.89-.176 1.511h-2.847c-.01.092-.012.138-.012.19 0 .715.428 1.076 1.257 1.076.512 0 .973-.12 1.486-.389l-.237 1.53zm-.804-3.645c.006-.13.01-.233.01-.312 0-.499-.25-.791-.675-.791-.457 0-.781.393-.913 1.097l1.578.006zM47.143 16.905h-.231v-1.016h-.335v-.218h.901v.218h-.335v1.016zm1.536 0h-.216v-1.031h-.003l-.207 1.03h-.227l-.202-1.03h-.003v1.03h-.216v-1.233h.338l.2.973h.004l.197-.973h.335v1.234zM6.492 7.742h-1.53l.876-5.789L3.88 7.742H2.83l-.127-5.755-.923 5.755H.348L1.544.209h2.205l.06 4.661L5.3.21h2.379L6.492 7.742M10.434 5.013a2.568 2.568 0 0 0-.343-.026c-.867 0-1.307.316-1.307.935 0 .381.216.624.55.624.623 0 1.075-.624 1.1-1.533zm1.114 2.729H10.28l.028-.636c-.387.507-.903.742-1.605.742-.832 0-1.401-.682-1.401-1.669 0-1.495.993-2.363 2.692-2.363.173 0 .395.013.623.045.047-.203.06-.29.06-.397 0-.405-.266-.559-.984-.559-.433 0-.93.066-1.273.175l-.213.062-.134.04.21-1.374c.765-.238 1.269-.33 1.836-.33 1.316 0 2.014.622 2.014 1.796 0 .305-.023.532-.127 1.216l-.32 2.17-.053.392-.04.312-.026.214-.019.164zM12.64 3.553c0 .773.356 1.308 1.161 1.708.616.307.715.396.715.675 0 .38-.274.557-.877.557-.454 0-.88-.076-1.369-.245l-.212 1.413.07.015.28.06c.09.019.224.036.4.055.365.034.645.05.843.05 1.607 0 2.35-.65 2.35-2.045 0-.838-.31-1.334-1.076-1.705-.638-.305-.71-.377-.71-.662 0-.332.253-.502.744-.502.3 0 .707.035 1.096.09l.218-1.414c-.399-.068-.992-.12-1.343-.12-1.705 0-2.296.94-2.29 2.07M18.677 7.667c-.416.139-.745.202-1.098.202-.782 0-1.209-.477-1.209-1.348 0-.17.013-.354.044-.549l.095-.597.07-.488.664-4.18h1.523l-.175.909h.784l-.215 1.49h-.782l-.404 2.556c-.014.113-.026.196-.026.254 0 .313.16.453.522.453.177 0 .31-.018.412-.057l-.205 1.355M23.528 7.613a5.065 5.065 0 0 1-1.573.246c-1.708 0-2.6-.942-2.6-2.742 0-2.105 1.135-3.655 2.678-3.655 1.258 0 2.066.869 2.066 2.23 0 .45-.054.89-.19 1.51h-3.046a1.217 1.217 0 0 0-.014.19c0 .717.455 1.077 1.346 1.077.547 0 1.039-.118 1.589-.39l-.256 1.534zm-.859-3.647c.009-.128.01-.233.01-.31 0-.501-.268-.793-.724-.793-.486 0-.834.39-.976 1.098l1.69.005zM27.847 1.565a.836.836 0 0 0-.157-.015c-.505 0-.79.267-1.259.997l.137-.931H25.18l-.94 6.126h1.539c.55-3.744.69-4.39 1.429-4.39.044 0 .048 0 .111.006.137-.739.323-1.281.58-1.776l-.052-.017M32.93.445l-.25 1.635c-.545-.29-.945-.404-1.372-.404-1.14 0-1.947 1.161-1.947 2.819 0 1.145.541 1.835 1.432 1.835.377 0 .793-.122 1.3-.389l-.267 1.72c-.562.162-.928.22-1.353.22-1.651 0-2.679-1.249-2.679-3.252 0-2.694 1.42-4.576 3.45-4.576.262 0 .496.025.687.08l.631.167c.187.074.23.086.368.145M35.568 5.013a2.543 2.543 0 0 0-.34-.026c-.872 0-1.313.316-1.313.935 0 .381.219.624.553.624.626 0 1.072-.624 1.1-1.533zm1.115 2.729h-1.27l.03-.636c-.387.507-.905.742-1.605.742-.833 0-1.404-.682-1.404-1.669 0-1.495.993-2.363 2.694-2.363.173 0 .396.013.623.045.047-.203.06-.29.06-.397 0-.405-.265-.559-.983-.559-.436 0-.932.066-1.271.175l-.219.062-.132.04.213-1.374c.766-.238 1.268-.33 1.831-.33 1.319 0 2.016.622 2.016 1.796 0 .305-.027.532-.126 1.216l-.322 2.17-.048.392-.043.312-.027.214-.017.164zM40.96 1.565a.764.764 0 0 0-.154-.015c-.502 0-.79.267-1.26.997l.136-.931h-1.385l-.937 6.126h1.534c.55-3.744.695-4.39 1.428-4.39.048 0 .045-.005.107.006.139-.739.326-1.281.584-1.776l-.052-.017M45.128 7.742h-1.45l.077-.6c-.422.474-.855.68-1.415.68-1.12 0-1.854-1.01-1.854-2.542 0-2.038 1.14-3.758 2.495-3.758.595 0 1.045.258 1.469.839l.333-2.152h1.51l-1.165 7.533zM42.868 6.3c.715 0 1.216-.852 1.216-2.064 0-.779-.286-1.203-.815-1.203-.694 0-1.187.855-1.187 2.06 0 .803.265 1.207.786 1.207zM46.017 6.853c0-.532.412-.963.916-.963.506 0 .913.43.913.963 0 .534-.407.965-.913.965-.504 0-.916-.431-.916-.965zm.916.737c.384 0 .698-.331.698-.737 0-.403-.314-.73-.698-.73-.383 0-.699.327-.699.73 0 .406.316.737.699.737zm-.125-.314h-.187v-.85h.34c.069 0 .146.005.206.048a.263.263 0 0 1 .102.213.225.225 0 0 1-.138.214l.147.375h-.209l-.123-.333h-.138v.333zm0-.477h.105c.038 0 .083.001.115-.018.032-.02.045-.062.045-.098 0-.032-.018-.07-.045-.085-.028-.02-.084-.015-.117-.015h-.103v.216z"/>
    </g>
</svg>
