<svg xmlns="http://www.w3.org/2000/svg" width="43" height="18" viewBox="0 0 43 18">
    <path fill="#BFBFBF" fill-rule="evenodd" d="M17.634 8.388h3.039a2.086 2.086 0 0 1-1.246 1.273l1.366 2.082h-2.2l-1.01-1.958h-.92v1.957h-1.92V8.388h2.887v-.055l.004.055zm-2.045 6.398C13.969 16.752 11.54 18 8.827 18 3.952 18 0 13.97 0 9s3.952-9 8.827-9c3.446 0 6.432 2.014 7.885 4.95h-2.363c-1.235-1.752-3.25-2.893-5.528-2.893-3.758 0-6.805 3.108-6.805 6.943 0 3.835 3.047 6.943 6.805 6.943 2.521 0 4.722-1.399 5.899-3.478h2.256l-.056.135h23.936c1.513.45 1.234 2.186 1.234 2.186H15.589zm-3.598-3.044V5.593h1.926v6.149h-1.926zm2.476-6.149h4.263c1.14 0 2.063.935 2.063 2.088 0 .143-.015.282-.041.418H17.44c-1.483 0-2.715-1.08-2.974-2.506zM7.385 9.227L8.187 6.4a1.103 1.103 0 0 1 1.057-.808h1.922v6.149H9.241V8.109h-.137l-1.1 3.633H6.628l-1.1-3.633h-.137v3.633H3.466V5.593h1.922c.49 0 .922.33 1.057.808l.803 2.826h.137zm31.77.416c0 .128-.36.57-.575.685-.215.116-.365.15-1.254.15h-1.015v1.158h-1.004V9.643h3.847zM34.732 10.8v.835h-2.39V7.843h2.39v.814h-1.45V9.3h1.135v.835h-1.135v.665h1.45zm-9.892.835h-1.009l-.252-.77H22.57l-.252.77H21.31l1.261-3.792h1.009l1.261 3.793zm-2.08-1.605h.631l-.315-1.222-.316 1.222zm4.748 1.56c-.328.096-1.022.109-1.324.019-.315-.09-.795-.45-.978-.733-.245-.367-.327-.72-.296-1.3.038-.803.372-1.33 1.053-1.651.423-.2 1.305-.193 1.74.013.176.084.391.225.485.315l.17.16-.226.347c-.126.193-.246.348-.265.348-.019 0-.164-.09-.316-.193-.34-.238-.636-.296-.97-.193-.731.218-.958 1.286-.385 1.8.12.103.29.212.378.231.278.07.713-.02.978-.2.145-.09.309-.215.315-.202.1.135.441.669.441.707 0 .083-.497.435-.8.531zm3.594 0c-.328.096-1.022.109-1.324.019-.315-.09-.795-.45-.978-.733-.245-.367-.328-.72-.296-1.3.038-.803.372-1.33 1.053-1.651.422-.2 1.305-.193 1.74.013.177.084.39.225.485.315l.171.16-.227.347c-.126.193-.246.348-.265.348-.019 0-.164-.09-.316-.193-.34-.238-.636-.296-.97-.193-.731.218-.958 1.286-.385 1.8.12.103.29.212.379.231.277.07.712-.02.977-.2.145-.09.308-.215.315-.202.1.135.441.669.441.707 0 .083-.498.435-.8.531zm7.29-3.62c.469.239.724.65.753 1.212l.008.336h-1.3c-1.218-.018-1.33-.026-1.548-.11a1.976 1.976 0 0 1-1.237-1.342l-.066-.223 1.592.013 1.593.013.205.1zm1.013-.255H43v.9h-1.261v3.279h-1.072v-3.28h-1.261v-.9z"/>
</svg>
