<svg xmlns="http://www.w3.org/2000/svg" width="43" height="18" viewBox="0 0 43 18">
    <g fill="#BFBFBF" fill-rule="evenodd">
        <path d="M19.748.126c.095.156.184.315.285.466.642.956 1.285 1.912 1.93 2.866.47.699.947 1.395 1.419 2.094l1.517 2.251c.209.31.42.62.637.938l-1.286.694c-.918.496-1.835.994-2.754 1.49-.457.247-.917.488-1.374.735-.919.495-1.836.994-2.754 1.49-.49.263-.982.52-1.47.784-.905.488-1.808.98-2.713 1.469-.466.252-.934.5-1.401.75-.608.325-1.216.649-1.822.976-.047.025-.084.067-.126.102h-.063c-.162-.237-.323-.475-.486-.71-.54-.783-1.082-1.564-1.623-2.346L5.812 11.5c-.518-.748-1.038-1.494-1.555-2.243-.599-.867-1.194-1.736-1.793-2.603A1093.95 1093.95 0 0 0 .4 3.677c-.122-.175-.254-.342-.382-.512v-.031l.668-.104c.435-.067.871-.136 1.307-.2.38-.058.762-.108 1.142-.167.435-.067.87-.143 1.305-.209.446-.068.894-.126 1.34-.193.46-.07.92-.145 1.382-.215.436-.066.873-.126 1.309-.193.516-.08 1.032-.166 1.548-.245.441-.068.884-.126 1.325-.193.527-.08 1.053-.163 1.579-.247.38-.06.758-.124 1.138-.183.294-.046.589-.086.883-.13l1.156-.174.927-.14c.376-.055.75-.11 1.126-.168.38-.057.76-.115 1.139-.177.101-.016.2-.046.3-.07h.157zM5.708 8.038c0 1.013.003 2.026-.004 3.038 0 .152.032.21.198.208.599-.01 1.198-.01 1.797 0 .156.002.192-.051.19-.198-.007-.636 0-1.273-.004-1.91-.001-.12.036-.162.16-.168.306-.014.614-.03.917-.076.576-.085 1.127-.252 1.613-.586.615-.422.936-1.004.883-1.755-.052-.754-.493-1.239-1.154-1.544-.542-.25-1.122-.349-1.711-.38-.901-.048-1.8-.016-2.695.122-.142.022-.196.07-.195.227.009 1.007.005 2.015.005 3.022zm11.904 1.009c-.112.061-.191.108-.274.15-.213.108-.42.233-.642.318-.465.177-.955.203-1.446.154-.705-.07-1.126-.446-1.265-1.119a2.67 2.67 0 0 1 .027-1.24c.153-.572.507-.964 1.107-1.05.289-.043.593-.011.886.02.424.044.826.16 1.157.455.127.113.273.204.428.319.01-.063.02-.102.02-.142.005-.276-.01-.554.018-.829.026-.254-.084-.418-.257-.579-.83-.773-1.804-1.057-2.91-.835-1.163.233-2.013.878-2.447 2.005-.318.825-.33 1.672-.072 2.515.254.829.79 1.42 1.576 1.781a3.86 3.86 0 0 0 1.341.331c.938.07 1.84-.025 2.65-.565.086-.057.117-.117.116-.216-.004-.433-.002-.866-.002-1.3 0-.045-.006-.09-.011-.173zm1.011-4.388v6.611c.064.004.12.01.176.01.588 0 1.177-.004 1.765.002.14.002.19-.033.189-.182a1485.77 1485.77 0 0 1 0-6.277c0-.14-.043-.178-.177-.177-.6.006-1.198.003-1.797.003-.05 0-.101.006-.156.01zm1.034-.39c.891 0 1.482-.86 1.126-1.64-.234-.511-.837-.801-1.396-.673-.544.126-.94.562-.96 1.055-.027.724.496 1.259 1.23 1.259z"/>
        <path d="M7.887 6.825V6.34c-.001-.082.031-.137.117-.126.298.04.6.063.89.135.204.05.353.195.359.437.005.24-.12.388-.326.486-.3.143-.622.16-.944.17-.03.002-.09-.074-.092-.116-.01-.166-.004-.334-.004-.5M26.497 2.43h2.03c.458 0 .807.035 1.047.105.323.095.6.264.83.507.23.243.405.541.525.893s.18.787.18 1.303c0 .454-.056.845-.169 1.173a2.431 2.431 0 0 1-.59.974c-.192.188-.452.335-.78.44-.245.078-.573.117-.983.117h-2.09V2.429zm1.11.932v3.65h.83c.31 0 .534-.017.671-.052.18-.045.33-.121.449-.23.119-.107.216-.284.29-.531.076-.247.114-.584.114-1.01 0-.426-.038-.753-.113-.981a1.26 1.26 0 0 0-.315-.534 1.057 1.057 0 0 0-.514-.26c-.156-.035-.46-.052-.912-.052h-.5zM31.77 6.148l1.08-.105c.066.363.197.63.396.8.2.171.468.256.805.256.358 0 .628-.076.81-.227.18-.152.271-.33.271-.532a.502.502 0 0 0-.114-.333c-.077-.091-.21-.171-.4-.239-.13-.045-.426-.125-.89-.24-.595-.148-1.013-.33-1.253-.546a1.435 1.435 0 0 1-.507-1.109c0-.28.08-.543.239-.788.159-.244.388-.43.687-.558.298-.128.66-.192 1.082-.192.69 0 1.21.152 1.56.455.349.304.532.709.55 1.215l-1.111.049c-.048-.284-.15-.487-.306-.611-.157-.124-.391-.186-.704-.186-.323 0-.575.066-.758.199a.424.424 0 0 0-.011.677c.14.118.48.24 1.02.368s.94.26 1.2.397c.258.136.461.323.608.56.146.237.22.53.22.878a1.627 1.627 0 0 1-1.007 1.502c-.32.134-.719.201-1.197.201-.696 0-1.23-.16-1.602-.483-.373-.322-.596-.791-.669-1.408M36.896 6.148l1.081-.105c.065.363.197.63.396.8.199.171.467.256.805.256.358 0 .627-.076.809-.227.181-.152.272-.33.272-.532a.502.502 0 0 0-.115-.333c-.076-.091-.21-.171-.4-.239a13.7 13.7 0 0 0-.889-.24c-.595-.148-1.013-.33-1.253-.546a1.435 1.435 0 0 1-.507-1.109c0-.28.08-.543.238-.788.16-.244.388-.43.687-.558.3-.128.66-.192 1.083-.192.69 0 1.21.152 1.56.455.348.304.532.709.55 1.215l-1.112.049c-.047-.284-.15-.487-.306-.611s-.39-.186-.703-.186c-.323 0-.576.066-.758.199a.423.423 0 0 0-.011.677c.14.118.48.24 1.02.368s.94.26 1.2.397c.258.136.461.323.607.56.147.237.22.53.22.878a1.627 1.627 0 0 1-1.006 1.502c-.32.134-.72.201-1.197.201-.696 0-1.23-.16-1.603-.483-.373-.322-.595-.791-.668-1.408M27.753 10.788l.377.12c-.058.21-.154.367-.288.469a.823.823 0 0 1-.512.153.827.827 0 0 1-.63-.263c-.165-.175-.247-.414-.247-.717 0-.322.083-.57.248-.749a.85.85 0 0 1 .653-.266.8.8 0 0 1 .574.21c.088.082.153.2.197.354l-.385.093a.41.41 0 0 0-.142-.237.41.41 0 0 0-.264-.087.438.438 0 0 0-.347.154c-.09.102-.134.269-.134.499 0 .244.044.417.132.52a.427.427 0 0 0 .341.156.39.39 0 0 0 .267-.099.575.575 0 0 0 .16-.31M28.385 10.544c0-.196.03-.361.088-.494a.903.903 0 0 1 .18-.265.747.747 0 0 1 .248-.174c.12-.05.259-.076.415-.076.284 0 .511.088.681.265.17.176.256.421.256.735 0 .312-.085.555-.254.731-.169.176-.395.264-.677.264-.287 0-.514-.087-.684-.263-.169-.175-.253-.416-.253-.723zm.4-.013c0 .219.05.384.152.497.1.113.228.17.383.17a.487.487 0 0 0 .382-.169c.1-.112.149-.28.149-.503 0-.221-.048-.386-.145-.495a.491.491 0 0 0-.386-.163c-.16 0-.29.055-.387.165-.098.11-.147.276-.147.498zM30.551 11.497v-1.93h.582l.35 1.317.345-1.316h.583v1.93h-.361v-1.52l-.382 1.52h-.375l-.38-1.52v1.52h-.362M32.797 11.497v-1.93h.624c.237 0 .39.01.463.03.11.029.202.092.277.189a.599.599 0 0 1 .111.375.63.63 0 0 1-.064.299.529.529 0 0 1-.163.19.563.563 0 0 1-.202.092 2.207 2.207 0 0 1-.403.027h-.254v.728h-.389zm.39-1.603v.548h.212c.153 0 .256-.01.307-.03a.254.254 0 0 0 .166-.245.25.25 0 0 0-.062-.174.268.268 0 0 0-.156-.086 1.884 1.884 0 0 0-.28-.013h-.188zM34.602 11.497V9.584h.389v1.588h.967v.325h-1.356M36.223 9.568h.486v1.93h-.486zM38.719 11.497h-.423l-.168-.438h-.77l-.159.438h-.412l.75-1.93h.41l.772 1.93zm-.716-.763l-.265-.716-.26.716h.525zM38.93 11.497v-1.93h.377l.788 1.29v-1.29h.362v1.93h-.39l-.777-1.258v1.258h-.36M41.301 11.497V9.894h-.571v-.326h1.53v.326h-.57v1.603h-.389"/>
    </g>
</svg>
