<svg xmlns="http://www.w3.org/2000/svg" width="57" height="20" viewBox="0 0 57 20">
    <g fill="#BFBFBF" fill-rule="evenodd">
        <path d="M13.798 13.982c-.182 0-.334.062-.428.174-.24.288-.132.794.235 1.106.16.136.391.217.618.217.23 0 .423-.084.541-.237.214-.278.091-.673-.312-1.005a1.046 1.046 0 0 0-.654-.255m2.012-1.444c-.179-.05-.312-.013-.378.104-.1.178-.026.528.175.833.204.31.377.466.514.466.048 0 .09-.02.123-.056.077-.085.102-.264.07-.49-.033-.232-.179-.708-.504-.857m3.967 7.064c.185.222-.097.449-.306.268-2.093-1.804-3.854-2.315-5.595-2.385-.924-.038-1.843.048-2.803.13a69.154 69.154 0 0 1-.838.068 9.86 9.86 0 0 1-1.03.054 9.479 9.479 0 0 1-4.595-1.161 8.63 8.63 0 0 1-3.345-3.209A8.6 8.6 0 0 1 .056 8.922c0-1.594.406-3.096 1.207-4.463a8.732 8.732 0 0 1 3.307-3.24A9.127 9.127 0 0 1 9.084.043c1.674 0 3.239.391 4.65 1.162a8.692 8.692 0 0 1 3.357 3.218 8.602 8.602 0 0 1 1.22 4.457 8.92 8.92 0 0 1-.328 2.397l-.007-.005c-.162.506-.464 1.22-1.026 2.138-.06.097-.094.024-.102-.03-.197-1.35-.805-2.376-1.877-3.038l-.053-.032a4.72 4.72 0 0 0-.564-.287 5.904 5.904 0 0 0-.827-.281c-.182-.048-.587-.028-.44-.17.06-.058.938-.071 1.947-.009l.06.004c.018-.206.027-.417.027-.633 0-1.685-.573-3.059-1.752-4.2-1.18-1.14-2.56-1.696-4.219-1.696-1.698 0-3.075.556-4.21 1.7C3.8 5.885 3.245 7.247 3.245 8.9c0 1.65.57 3.006 1.743 4.146 1.173 1.14 2.534 1.695 4.162 1.695.078 0 .156-.002.233-.004l-.005-.057c-.094-1.163-.113-2.13.132-1.74.087.138.173.268.26.393a8.42 8.42 0 0 0 1.002 1.217c1.158 1.143 2.297 1.425 3.508 1.714l.078.018c.198.048.398.096.6.149 1.44.373 3 .976 4.819 3.17M21.817 5.41h1.815v2.785h.747l1.535-2.785h1.95l-2.002 3.45v.02l2.116 3.744h-2.033l-1.566-2.926h-.747v2.926h-1.815V5.41M32.48 9.698l-.415-1.402c-.135-.454-.301-1.241-.301-1.241h-.02s-.167.787-.302 1.24l-.425 1.403h1.463zM30.8 5.41h1.908l2.52 7.214h-1.867l-.456-1.513h-2.313l-.446 1.513H28.28L30.8 5.41zM39.023 5.289c.996 0 2.053.323 2.78 1.019l-.84 1.332c-.478-.404-1.193-.737-1.857-.737-1.483 0-2.095 1.02-2.095 2.059 0 1.07.664 2.169 2.095 2.169.736 0 1.462-.394 1.97-.888l.934 1.291c-.654.656-1.628 1.211-2.987 1.211-2.385 0-3.89-1.604-3.89-3.743 0-2.099 1.598-3.713 3.89-3.713M46.252 5.289c.995 0 2.053.323 2.78 1.019l-.84 1.332c-.478-.404-1.194-.737-1.857-.737-1.483 0-2.095 1.02-2.095 2.059 0 1.07.663 2.169 2.095 2.169.736 0 1.462-.394 1.97-.888l.934 1.291c-.654.656-1.629 1.211-2.987 1.211-2.386 0-3.89-1.604-3.89-3.743 0-2.099 1.598-3.713 3.89-3.713M53.553 9.698l-.415-1.402c-.135-.454-.3-1.241-.3-1.241h-.021s-.166.787-.301 1.24l-.425 1.403h1.462zm-1.68-4.288h1.908l2.52 7.214h-1.866l-.457-1.513h-2.313l-.446 1.513h-1.866l2.52-7.214z"/>
    </g>
</svg>
