<svg xmlns="http://www.w3.org/2000/svg" width="41" height="18" viewBox="0 0 41 18">
    <g fill="#BFBFBF" fill-rule="evenodd">
        <path d="M2.982 7.409h-1.31L.176.619l1.43-.241L2.644 5.69 5.264.445h1.377M9.753 5.189H6.652c-.088.946.349 1.354 1.092 1.354.622 0 1.168-.228 1.758-.601v.946a3.764 3.764 0 0 1-2.031.592c-1.354 0-2.25-.773-1.977-2.523.24-1.577 1.332-2.533 2.588-2.533 1.453 0 1.944 1.095 1.726 2.472-.011.103-.044.222-.055.293M7.929 3.26c-.48 0-.928.38-1.146 1.175h1.922c.043-.753-.197-1.175-.776-1.175M11.784 4.596l-.426 2.784h-1.201l.743-4.856h1.026v.978c.404-.563.961-1.036 1.715-1.078l.01 1.198a2.674 2.674 0 0 0-1.867.974M13.63 7.38l.753-4.856h1.201l-.753 4.856m.284-5.667c-.404 0-.677-.283-.623-.682a.85.85 0 0 1 .83-.705c.394 0 .677.293.612.705a.83.83 0 0 1-.82.682M18.915 1.198c-.415 0-.666.184-.731.615l-.11.711h.929v.988H17.92l-.59 3.868h-1.19l.59-3.868h-.699l.153-.988h.699l.131-.83c.164-1.075.906-1.48 1.9-1.48.208 0 .371.022.48.042l.012.984a3.134 3.134 0 0 0-.492-.042M18.926 7.38l.743-4.856h1.212l-.754 4.856m.284-5.667c-.404 0-.677-.283-.622-.682a.85.85 0 0 1 .83-.705c.393 0 .666.293.611.705a.83.83 0 0 1-.819.682M25.544 5.189h-3.112c-.088.946.349 1.354 1.092 1.354.622 0 1.168-.228 1.758-.601v.946a3.765 3.765 0 0 1-2.031.592c-1.355 0-2.25-.773-1.977-2.523.24-1.577 1.332-2.533 2.599-2.533 1.452 0 1.933 1.095 1.725 2.472a6.032 6.032 0 0 0-.054.293M23.709 3.26c-.48 0-.928.38-1.146 1.175h1.933c.032-.753-.208-1.175-.787-1.175M29.104 7.38v-.673c-.404.412-.928.773-1.594.773-1.016 0-1.715-.753-1.464-2.394.284-1.806 1.398-2.61 2.523-2.61.459 0 .819.08 1.092.18l.36-2.342 1.234-.19-1.114 7.256m-.633-3.73a1.804 1.804 0 0 0-.907-.209c-.633 0-1.179.512-1.343 1.577-.142.943.197 1.387.721 1.387.448 0 .83-.26 1.212-.666l.317-2.089M33.822 7.425a4.24 4.24 0 0 1-1.464-.245l.786-5.151.94-.145-.339 2.23c.273-.245.644-.486 1.114-.486.775 0 1.288.576 1.103 1.808-.208 1.355-1.049 1.989-2.14 1.989m.677-2.993c-.306 0-.612.206-.885.48l-.251 1.667c.175.07.306.1.557.1.579 0 .983-.348 1.114-1.188.109-.708-.131-1.059-.535-1.059M38.113 7.576c-.47.908-.928 1.188-1.638 1.188a.985.985 0 0 1-.328-.039l-.01-.753c.12.032.25.052.426.052a.712.712 0 0 0 .644-.387l.12-.244-.764-3.62.96-.123.448 2.616 1.223-2.56h.896M16.414 9.262l-1.987 5.38-.208-1.093c-.567-1.558-1.954-2.417-2.653-2.665l1.649 6.256 2.162-.007 3.2-7.87h-2.163M18.129 17.146l1.267-7.89h2.03l-1.266 7.89H18.13M27.531 9.449a4.98 4.98 0 0 0-1.823-.328c-2.01 0-3.418 1.068-3.43 2.6-.01 1.136 1.005 1.766 1.78 2.143.787.386 1.06.634 1.049.981 0 .528-.622.77-1.212.77-.82 0-1.245-.12-1.911-.413l-.262-.125-.284 1.763c.47.222 1.354.412 2.26.422 2.14 0 3.528-1.059 3.539-2.697.01-.897-.536-1.576-1.704-2.14-.71-.366-1.147-.608-1.147-.978 0-.328.372-.679 1.169-.679a3.495 3.495 0 0 1 1.518.303l.185.087.273-1.71M32.751 9.266H31.18c-.492 0-.852.138-1.06.653l-3.025 7.23h2.13s.35-.975.437-1.187l2.599.003c.065.274.251 1.184.251 1.184h1.89l-1.65-7.883m-2.511 5.08c.174-.453.808-2.204.808-2.204-.011.023.174-.457.273-.753l.142.683s.382 1.882.47 2.274H30.24"/>
        <path d="M12.581 9.26H9.305l-.033.163c2.862.73 4.205 2.127 4.947 4.129l-.72-3.63c-.12-.499-.48-.647-.918-.663"/>
    </g>
</svg>
