<svg xmlns="http://www.w3.org/2000/svg" xmlns:xlink="http://www.w3.org/1999/xlink" width="196" height="17" viewBox="0 0 196 17">
    <defs>
        <path id="a" d="M14.82.24H.088V15H14.82z"/>
        <path id="c" d="M14.732.24H.002V15h14.731z"/>
        <linearGradient id="e" x1="0%" x2="100.141%" y1="50.052%" y2="50.052%">
            <stop offset="0%" stop-color="#5BAAE3"/>
            <stop offset="33%" stop-color="#58A1DC"/>
            <stop offset="87%" stop-color="#4F89C8"/>
            <stop offset="100%" stop-color="#4C82C3"/>
        </linearGradient>
        <linearGradient id="f" x1="0%" x2="100.088%" y1="49.909%" y2="49.909%">
            <stop offset="0%" stop-color="#363C61"/>
            <stop offset="100%" stop-color="#4D64A9"/>
        </linearGradient>
        <path id="g" d="M.012 16.499H57V.176H.012z"/>
    </defs>
    <g fill="none" fill-rule="evenodd">
        <g transform="translate(65 -.24)">
            <mask id="b" fill="#fff">
                <use xlink:href="#a"/>
            </mask>
            <path fill="#FC9F3A" fill-rule="nonzero" d="M14.82 7.62c0 4.076-3.298 7.38-7.366 7.38S.088 11.696.088 7.62C.088 3.544 3.386.24 7.454.24s7.366 3.304 7.366 7.38z" mask="url(#b)"/>
        </g>
        <g transform="translate(56 -.24)">
            <mask id="d" fill="#fff">
                <use xlink:href="#c"/>
            </mask>
            <path fill="#F14840" fill-rule="nonzero" d="M14.732 7.62c0 4.076-3.297 7.38-7.365 7.38S0 11.696 0 7.62C0 3.544 3.3.24 7.367.24c4.067 0 7.365 3.304 7.365 7.38z" mask="url(#d)"/>
        </g>
        <path fill="#F46B3E" fill-rule="nonzero" d="M67.91 1.57a7.37 7.37 0 0 0-2.822 5.81 7.372 7.372 0 0 0 2.822 5.81 7.372 7.372 0 0 0 2.822-5.81 7.37 7.37 0 0 0-2.822-5.81"/>
        <g fill-rule="nonzero">
            <path fill="#3CA85B" d="M107.784 8.334h-.238l-1.388-4.927A1.91 1.91 0 0 0 104.327 2H101v10.72h3.331V6.386h.251l1.903 6.334h2.382l1.894-6.334H111v6.334h3.33V2h-3.326a1.91 1.91 0 0 0-1.831 1.407l-1.388 4.927z"/>
            <path fill="url(#e)" d="M26.418 0h-7.375c.459 2.536 2.616 4.379 5.136 4.386h5.731a3.731 3.731 0 0 0-.735-3.036A3.551 3.551 0 0 0 26.418 0z" transform="translate(101 2)"/>
            <path fill="#3CA85B" d="M115.758 2h3.331v10.72h-3.331zM131 12.725l-2.364-3.63a3.626 3.626 0 0 0 2.158-2.218h-10.272v5.843h3.314V9.333h1.594l1.746 3.415 3.824-.023z"/>
        </g>
        <g fill="url(#f)" fill-rule="nonzero" transform="translate(0 1)">
            <path d="M13 .91L8.52 11.82H5.6L3.4 3.27a1.21 1.21 0 0 0-.65-1 11.44 11.44 0 0 0-2.72-1l.06-.4h4.69a1.36 1.36 0 0 1 1.27 1.16l1.16 6.13L10.08.87 13 .91zm11.4 7.33c0-2.81-3.89-3-3.86-4.22 0-.38.37-.79 1.17-.89a5.2 5.2 0 0 1 2.72.48l.48-2.26a7.41 7.41 0 0 0-2.58-.47c-2.72 0-4.64 1.45-4.66 3.52 0 1.53 1.37 2.39 2.41 2.9 1.04.51 1.43.86 1.43 1.32 0 .72-.86 1-1.65 1A5.77 5.77 0 0 1 17 9l-.5 2.34a8.35 8.35 0 0 0 3.07.57c2.9 0 4.79-1.43 4.8-3.65l.03-.02zm7.17 3.6h2.55L31.92.91h-2.35a1.38 1.38 0 0 0-1.17.91l-4.14 10h2.89l.58-1.82h3.54l.3 1.84zm-3.05-4.11l1.45-4 .84 4h-2.29zM16.92.91l-2.28 10.91h-2.76L14.17.91h2.75z"/>
        </g>
        <g transform="translate(146)">
            <mask id="h" fill="#fff">
                <use xlink:href="#g"/>
            </mask>
            <path fill="#0023A0" d="M31.181 12.256c0 .115-.072.188-.187.188h-1.949c-.115 0-.186-.073-.186-.188V2.348c0-.116.071-.189.186-.189h1.95c.114 0 .186.073.186.19v9.907zm11.032-3.204l1.655-6.733c.029-.102.1-.16.215-.16h1.978c.129 0 .2.087.158.203 0 0-2.193 8.905-2.423 9.908-.026.114-.086.174-.2.174h-2.623c-.116 0-.187-.058-.202-.174a38.906 38.906 0 0 0-.516-2.408l-.444-1.885c-.086-.378-.2-.987-.287-1.495-.028-.203-.2-.203-.23 0a35.15 35.15 0 0 1-.286 1.495l-.444 1.885a87.148 87.148 0 0 0-.516 2.408c-.015.116-.086.174-.2.174h-2.624c-.115 0-.173-.06-.201-.174-.254-1.003-2.423-9.908-2.423-9.908-.043-.116.03-.203.158-.203h1.978c.115 0 .186.058.216.16l1.637 6.733 1.803-6.733c.028-.102.1-.16.2-.16h1.634c.101 0 .173.058.202.16l1.785 6.733zm7.748 3.204c0 .115-.072.188-.187.188h-1.949c-.114 0-.186-.073-.186-.188V2.348c0-.116.072-.189.186-.189h1.95c.114 0 .186.073.186.19v9.907zm-23.382 2.698c-.086.072-.186.057-.258-.03l-.688-.928c-.63-.856-1.434-1.392-2.925-1.392-2.81 0-4.572-2.046-4.572-5.295C18.136 4.045 19.899 2 22.708 2c2.81 0 4.56 2.045 4.56 5.309 0 1.654-.575 3.336-1.535 3.917-.172.101-.172.145 0 .203.832.304 1.219.667 1.663 1.247l.645.885c.072.088.057.188-.029.261l-1.433 1.132zm-3.87-4.44c1.39 0 2.221-1.218 2.221-3.205 0-2.03-.831-3.206-2.222-3.206-1.361 0-2.236 1.175-2.236 3.206 0 1.987.875 3.206 2.236 3.206z" mask="url(#h)"/>
            <path fill="#FF8C00" d="M12.436 10.436c-.14-.041-.246-.01-.298.086-.079.145-.02.433.138.684.161.253.297.382.406.382.038 0 .071-.016.097-.046.06-.07.08-.217.055-.403-.026-.19-.14-.58-.398-.703m-1.588 1.186a.42.42 0 0 0-.337.143c-.19.236-.105.651.185.907a.752.752 0 0 0 .487.179.515.515 0 0 0 .428-.194c.169-.23.072-.553-.247-.826a.807.807 0 0 0-.516-.209m4.72 4.614c-1.436-1.801-2.667-2.296-3.804-2.603-.16-.043-.317-.083-.474-.122l-.061-.015c-.956-.237-1.856-.468-2.77-1.407l-.037-.038c-.25-.262-.5-.578-.754-.96a9.04 9.04 0 0 1-.205-.324c-.194-.32-.178.473-.104 1.428 0 .016.002.031.003.047-.06.002-.121.004-.183.004-1.285 0-2.36-.455-3.286-1.392-.926-.937-1.375-2.05-1.375-3.405 0-1.357.437-2.475 1.337-3.419.896-.938 1.983-1.395 3.324-1.395 1.31 0 2.398.456 3.33 1.393.931.937 1.384 2.065 1.384 3.448 0 .178-.008.35-.023.52l-.046-.003c-.797-.05-1.49-.04-1.538.008-.115.116.205.1.348.139.234.064.451.141.653.231.158.07.306.15.445.236l.042.026c.847.543 1.327 1.385 1.482 2.494.006.044.033.105.08.025.444-.753.682-1.34.81-1.755l.006.003a7.73 7.73 0 0 0 .115-.488c.095-.48.143-.974.143-1.48 0-1.31-.323-2.542-.963-3.66a6.985 6.985 0 0 0-2.649-2.642A7.34 7.34 0 0 0 7.127.176a6.984 6.984 0 0 0-3.563.965A7.029 7.029 0 0 0 .953 3.802 7.377 7.377 0 0 0 0 7.467c0 1.31.32 2.539.954 3.65a6.94 6.94 0 0 0 2.641 2.635 7.252 7.252 0 0 0 3.627.953c.275 0 .546-.015.814-.044a66.136 66.136 0 0 0 .66-.056c.759-.067 1.484-.138 2.214-.107 1.374.058 2.764.477 4.417 1.958.165.149.387-.037.241-.22" mask="url(#h)"/>
        </g>
    </g>
</svg>
