<svg xmlns="http://www.w3.org/2000/svg" xmlns:xlink="http://www.w3.org/1999/xlink" width="37" height="37" viewBox="0 0 37 37">
    <defs>
        <circle id="a" cx="18.5" cy="18.5" r="18.5"/>
    </defs>
    <g fill="none" fill-rule="evenodd">
        <mask id="b" fill="#fff">
            <use xlink:href="#a"/>
        </mask>
        <use fill="#F5F5F5" xlink:href="#a"/>
        <path fill="#FF9011" d="M28.491 29.531c.212.189.494-.045.31-.28-2.079-2.63-4-3.132-5.917-3.555-2.344-.518-3.55-1.842-4.39-3.294-.167-.29-.242-.238-.257.133a8.24 8.24 0 0 0 .114 1.647c-.094.005-.19.004-.285.004-3.354 0-6.072-2.728-6.072-6.092 0-3.364 2.718-6.09 6.072-6.09 3.353 0 6.072 2.726 6.072 6.09 0 .24-.012.476-.038.708-.444-.08-1.317-.089-1.929-.036-.23.02-.198.128-.024.16 2.008.363 3.387 1.611 3.702 3.876.007.052.075.067.102.022.826-1.382 1.3-3 1.3-4.73 0-5.089-4.112-9.214-9.185-9.214S8.88 13.005 8.88 18.094c0 5.09 4.113 9.215 9.186 9.215 1.346 0 2.681-.262 4.64-.262 1.76 0 3.671.605 5.785 2.484zm-4.784-4.78c-.12.159-.315.247-.549.247a.972.972 0 0 1-.625-.227c-.371-.326-.48-.854-.238-1.154.095-.118.249-.182.434-.182.224 0 .459.095.661.266.409.347.533.759.317 1.05zm1.374-1.359c-.14 0-.314-.164-.52-.487-.204-.319-.279-.684-.178-.87.067-.122.206-.175.382-.108.341.13.475.653.51.894.06.404-.066.571-.194.571z" mask="url(#b)"/>
    </g>
</svg>
